<svg viewBox="0 0 1024 1024" version="1.1" xmlns="http://www.w3.org/2000/svg" width="128" height="128">
  <path d="M853.333333 213.333333H469.333333L384 128H170.666667c-46.933333 0-85.333333 38.4-85.333334 85.333333v597.333334c0 46.933333 38.4 85.333333 85.333334 85.333333h682.666666c46.933333 0 85.333333-38.4 85.333334-85.333333V298.666667c0-46.933333-38.4-85.333333-85.333334-85.333334zM170.666667 256h277.333333l85.333333 85.333333h320c23.466667 0 42.666667 19.2 42.666667 42.666667v426.666667c0 23.466667-19.2 42.666667-42.666667 42.666666H170.666667c-23.466667 0-42.666667-19.2-42.666667-42.666666V298.666667c0-23.466667 19.2-42.666667 42.666667-42.666667z"/>
  <path d="M341.333333 512m42.666667 0l256 0q42.666667 0 42.666667 42.666667l0 0q0 42.666667-42.666667 42.666666l-256 0q-42.666667 0-42.666667-42.666666l0 0q0-42.666667 42.666667-42.666667Z"/>
  <path d="M341.333333 640m42.666667 0l170.666667 0q42.666667 0 42.666666 42.666667l0 0q0 42.666667-42.666666 42.666666l-170.666667 0q-42.666667 0-42.666667-42.666666l0 0q0-42.666667 42.666667-42.666667Z"/>
</svg>
