<svg viewBox="0 0 1024 1024" version="1.1" xmlns="http://www.w3.org/2000/svg" width="128" height="128">
  <path d="M512 341.333333c-94.293333 0-170.666667 76.373333-170.666667 170.666667s76.373333 170.666667 170.666667 170.666667 170.666667-76.373333 170.666667-170.666667-76.373333-170.666667-170.666667-170.666667z m0 256c-47.36 0-85.333333-37.973333-85.333333-85.333333s37.973333-85.333333 85.333333-85.333333 85.333333 37.973333 85.333333 85.333333-37.973333 85.333333-85.333333 85.333333z"/>
  <path d="M896 512c0-22.186667-2.56-42.666667-7.68-62.72l-77.226667-12.373333 24.746667-67.413334c-38.4-75.093333-97.706667-135.68-171.52-171.52l-67.413334 24.746667-12.373333-77.226667c-20.053333-5.12-40.533333-7.68-62.72-7.68s-42.666667 2.56-62.72 7.68l-12.373333 77.226667-67.413334-24.746667c-75.093333 38.4-135.68 97.706667-171.52 171.52l24.746667 67.413334-77.226667 12.373333c-5.12 20.053333-7.68 40.533333-7.68 62.72s2.56 42.666667 7.68 62.72l77.226667 12.373333-24.746667 67.413334c38.4 75.093333 97.706667 135.68 171.52 171.52l67.413334-24.746667 12.373333 77.226667c20.053333 5.12 40.533333 7.68 62.72 7.68s42.666667-2.56 62.72-7.68l12.373333-77.226667 67.413334 24.746667c75.093333-38.4 135.68-97.706667 171.52-171.52l-24.746667-67.413334 77.226667-12.373333c5.12-20.053333 7.68-40.533333 7.68-62.72z m-149.76 88.32l-49.92-8.106667 16.426667-44.8-45.653334-23.466666-38.826666 28.586666-34.133334-37.546666 26.453334-41.813334-21.76-40.96-48.213334 4.266667-22.186666-44.8-4.266667-48.213333-40.96-21.76-41.813333 26.453333-37.546667-34.133333 28.586667-38.826667-23.466667-45.653333-44.8 16.426667-8.106666-49.92c-19.626667-6.826667-32-20.48-38.826667-34.133333l-0.426667-0.426667c6.826667-19.626667 20.48-34.133333 38.826667-38.826667l49.92-8.106666-16.426667-44.8 45.653334-23.466667 38.826666 28.586667 34.133334-37.546667-26.453334-41.813333 21.76-40.96 48.213334 4.266666 22.186666-44.8 4.266667-48.213333 40.96-21.76 41.813333 26.453333 37.546667-34.133333-28.586667-38.826667 23.466667-45.653333 44.8 16.426666 8.106667-49.92c19.626667-6.826667 34.133333-20.48 38.826667-34.133333l0.426666-0.426667c-6.826667-19.626667-20.48-34.133333-38.826666-38.826667z"/>
</svg>
