<svg viewBox="0 0 1024 1024" version="1.1" xmlns="http://www.w3.org/2000/svg" width="128" height="128">
  <path d="M938.666667 554.666667L597.333333 896H128V426.666667l341.333333-341.333334h384c46.933333 0 85.333333 38.4 85.333334 85.333334v384z m-85.333334-384c0-23.466667-19.2-42.666667-42.666666-42.666667h-341.333334L213.333333 384v426.666667h341.333334l298.666666-298.666667V170.666667zM341.333333 384m42.666667 0l0 0q42.666667 0 42.666667 42.666667l0 0q0 42.666667-42.666667 42.666666l0 0q-42.666667 0-42.666667-42.666666l0 0q0-42.666667 42.666667-42.666667Z"/>
</svg>
